# xmcd
#
# Track frame offsets: 
#        150
#        21880
#        47142
#        79625
#        95407
#        117641
#        134489
#        164189
#        200591
#        220711
#        252445
#        268590
#        298386
#        315569
#        346519
#
# Disc length: 4788 seconds
#
# Revision: 1
# Processed by: cddbd v1.5.2PL0 Copyright (c) Steve Scherf et al.
# Submitted via: ExactAudioCopy v1.3
#
DISCID=e812b20f
DTITLE=Various Artist - Akella Presents - vol.88 - Black Pure Blues  
DTITLE=CD1
DYEAR=2016
DGENRE=Blues
TTITLE0=Ray Bailey - Satan's Horn
TTITLE1=Lil' Ed And The Blues Imperials - Life Is A Journey
TTITLE2=Jimmy D. Lane - Four O'Clock In The Morning
TTITLE3=Pinetop Perkins - Got My Mojo Working
TTITLE4=Lurrie Bell - This Worrisome Feeling In My Heart
TTITLE5=Kenny Neal - I Go by Feel
TTITLE6=Maurice John Vaughn - Blood Red Sky
TTITLE7=Willie King and The Liberators - Terrorized - 
TTITLE8=Joey Gilmore - Before The Bullets Fly
TTITLE9=Marquise Knox - Ice Storm
TTITLE10=John Broadway Tucker - Unwanted Child
TTITLE11=Mighty Sam McClain - You Worry Me
TTITLE12=Big Daddy Kinsey - Nuclear War Blues
TTITLE13=Albert Collins - Too Many Dirty Dishes
TTITLE14=Jimmy Burns - Gypsy Woman
EXTD=
EXTT0=
EXTT1=
EXTT2=
EXTT3=
EXTT4=
EXTT5=
EXTT6=
EXTT7=
EXTT8=
EXTT9=
EXTT10=
EXTT11=
EXTT12=
EXTT13=
EXTT14=
PLAYORDER=
